<?xml version="1.0" encoding="UTF-8"?>
<!DOCTYPE svg PUBLIC "-//W3C//DTD SVG 1.1//EN" "http://www.w3.org/Graphics/SVG/1.1/DTD/svg11.dtd">
<svg xmlns="http://www.w3.org/2000/svg" version="1.1" width="1388px" height="408px" style="shape-rendering:geometricPrecision; text-rendering:geometricPrecision; image-rendering:optimizeQuality; fill-rule:evenodd; clip-rule:evenodd" xmlns:xlink="http://www.w3.org/1999/xlink">
<g><path style="opacity:1" fill="#7ed957" d="M -0.5,-0.5 C 36.5,-0.5 73.5,-0.5 110.5,-0.5C 110.272,20.1227 101.939,36.6227 85.5,49C 51.2522,67.7663 22.5856,61.5997 -0.5,30.5C -0.5,20.1667 -0.5,9.83333 -0.5,-0.5 Z"/></g>
<g><path style="opacity:1" fill="#fafaf3" d="M 110.5,-0.5 C 502.833,-0.5 895.167,-0.5 1287.5,-0.5C 1291.06,6.27501 1294.89,12.9417 1299,19.5C 1300.92,27.0194 1302.76,34.5194 1304.5,42C 1311.74,44.0489 1319.08,45.7156 1326.5,47C 1333.3,50.9688 1339.97,55.1355 1346.5,59.5C 1352.83,55.6667 1359.17,51.8333 1365.5,48C 1372.77,45.8481 1380.11,44.0148 1387.5,42.5C 1387.5,56.5 1387.5,70.5 1387.5,84.5C 1382.87,79.6949 1378.37,74.6949 1374,69.5C 1366.83,77.3333 1359.67,85.1667 1352.5,93C 1342.44,94.7452 1332.44,96.7452 1322.5,99C 1322.04,99.414 1321.71,99.914 1321.5,100.5C 1324.83,110.167 1328.17,119.833 1331.5,129.5C 1327.4,139.296 1324.23,149.296 1322,159.5C 1332.01,162.17 1342.18,164.337 1352.5,166C 1359.67,173.833 1366.83,181.667 1374,189.5C 1378.37,184.305 1382.87,179.305 1387.5,174.5C 1387.5,185.5 1387.5,196.5 1387.5,207.5C 1373.83,207.5 1360.17,207.5 1346.5,207.5C 1346.5,247.167 1346.5,286.833 1346.5,326.5C 1360.17,326.5 1373.83,326.5 1387.5,326.5C 1387.5,339.167 1387.5,351.833 1387.5,364.5C 1380.02,363.297 1372.69,361.464 1365.5,359C 1359.17,355.167 1352.83,351.333 1346.5,347.5C 1339.97,351.865 1333.3,356.031 1326.5,360C 1319.08,361.284 1311.74,362.951 1304.5,365C 1302.11,373.078 1299.94,381.245 1298,389.5C 1293.85,395.145 1290.35,401.145 1287.5,407.5C 895.167,407.5 502.833,407.5 110.5,407.5C 109.432,376.895 94.0984,357.395 64.5,349C 36.6194,343.951 14.9527,353.118 -0.5,376.5C -0.5,363.5 -0.5,350.5 -0.5,337.5C 28.1667,337.5 56.8333,337.5 85.5,337.5C 66.367,302.176 46.5337,267.176 26,232.5C 17.3924,248.059 8.55912,263.393 -0.5,278.5C -0.5,254.833 -0.5,231.167 -0.5,207.5C 5.54871,210.943 11.7154,214.276 18,217.5C 35.2501,207.915 52.2501,197.915 69,187.5C 69.8331,167.492 69.6664,147.492 68.5,127.5C 52.1667,118 35.8333,108.5 19.5,99C 18.1667,98.3333 16.8333,98.3333 15.5,99C 10.2713,102.113 4.93801,104.947 -0.5,107.5C -0.5,81.8333 -0.5,56.1667 -0.5,30.5C 22.5856,61.5997 51.2522,67.7663 85.5,49C 101.939,36.6227 110.272,20.1227 110.5,-0.5 Z"/></g>
<g><path style="opacity:1" fill="#ff66c4" d="M 1287.5,-0.5 C 1320.83,-0.5 1354.17,-0.5 1387.5,-0.5C 1387.5,13.8333 1387.5,28.1667 1387.5,42.5C 1380.11,44.0148 1372.77,45.8481 1365.5,48C 1359.17,51.8333 1352.83,55.6667 1346.5,59.5C 1339.97,55.1355 1333.3,50.9688 1326.5,47C 1319.08,45.7156 1311.74,44.0489 1304.5,42C 1302.76,34.5194 1300.92,27.0194 1299,19.5C 1294.89,12.9417 1291.06,6.27501 1287.5,-0.5 Z"/></g>
<g><path style="opacity:1" fill="#7ed958" d="M 1387.5,84.5 C 1387.5,114.5 1387.5,144.5 1387.5,174.5C 1382.87,179.305 1378.37,184.305 1374,189.5C 1366.83,181.667 1359.67,173.833 1352.5,166C 1342.18,164.337 1332.01,162.17 1322,159.5C 1324.23,149.296 1327.4,139.296 1331.5,129.5C 1328.17,119.833 1324.83,110.167 1321.5,100.5C 1321.71,99.914 1322.04,99.414 1322.5,99C 1332.44,96.7452 1342.44,94.7452 1352.5,93C 1359.67,85.1667 1366.83,77.3333 1374,69.5C 1378.37,74.6949 1382.87,79.6949 1387.5,84.5 Z"/></g>
<g><path style="opacity:1" fill="#febd58" d="M 80.5,89.5 C 95.1667,89.5 109.833,89.5 124.5,89.5C 124.5,103.167 124.5,116.833 124.5,130.5C 109.833,130.5 95.1667,130.5 80.5,130.5C 80.5,116.833 80.5,103.167 80.5,89.5 Z"/></g>
<g><path style="opacity:1" fill="#fdd391" d="M 80.5,89.5 C 95.324,88.5039 110.324,88.1706 125.5,88.5C 125.5,102.833 125.5,117.167 125.5,131.5C 110.324,131.829 95.324,131.496 80.5,130.5C 95.1667,130.5 109.833,130.5 124.5,130.5C 124.5,116.833 124.5,103.167 124.5,89.5C 109.833,89.5 95.1667,89.5 80.5,89.5 Z"/></g>
<g><path style="opacity:1" fill="#3bb6fe" d="M 1289.5,92.5 C 1291.07,92.9371 1292.24,93.9371 1293,95.5C 1301.03,109.372 1308.87,123.372 1316.5,137.5C 1298.84,138.666 1281.18,138.833 1263.5,138C 1272.3,122.887 1280.97,107.721 1289.5,92.5 Z"/></g>
<g><path style="opacity:1" fill="#cb6ce6" d="M -0.5,207.5 C -0.5,174.167 -0.5,140.833 -0.5,107.5C 4.93801,104.947 10.2713,102.113 15.5,99C 16.8333,98.3333 18.1667,98.3333 19.5,99C 35.8333,108.5 52.1667,118 68.5,127.5C 69.6664,147.492 69.8331,167.492 69,187.5C 52.2501,197.915 35.2501,207.915 18,217.5C 11.7154,214.276 5.54871,210.943 -0.5,207.5 Z"/></g>
<g><path style="opacity:1" fill="#7fd958" d="M 106.5,169.5 C 111.269,172.434 115.269,176.267 118.5,181C 124.144,182.441 129.811,183.774 135.5,185C 133.439,189.849 131.772,194.849 130.5,200C 131.865,205.263 133.532,210.429 135.5,215.5C 129.958,217.345 124.292,219.011 118.5,220.5C 115.167,224.5 111.5,228.167 107.5,231.5C 103.496,227.996 99.8297,224.163 96.5,220C 91.7468,219.383 87.0801,218.383 82.5,217C 81.4844,216.481 80.8178,215.647 80.5,214.5C 81.7709,209.687 83.4376,205.02 85.5,200.5C 83.7347,195.704 82.068,190.871 80.5,186C 80.9054,185.055 81.572,184.388 82.5,184C 87.2111,183.207 91.8778,182.207 96.5,181C 100.416,177.59 103.749,173.757 106.5,169.5 Z"/></g>
<g><path style="opacity:1" fill="#cb6de6" d="M 1285.5,180.5 C 1294.36,184.662 1303.02,189.329 1311.5,194.5C 1312.83,205.167 1312.83,215.833 1311.5,226.5C 1303.19,230.983 1295.03,235.65 1287,240.5C 1278.77,235.967 1270.6,231.3 1262.5,226.5C 1261.17,215.833 1261.17,205.167 1262.5,194.5C 1270.4,190.059 1278.06,185.392 1285.5,180.5 Z"/></g>
<g><path style="opacity:1" fill="#ffbd5a" d="M 1387.5,207.5 C 1387.5,247.167 1387.5,286.833 1387.5,326.5C 1373.83,326.5 1360.17,326.5 1346.5,326.5C 1346.5,286.833 1346.5,247.167 1346.5,207.5C 1360.17,207.5 1373.83,207.5 1387.5,207.5 Z"/></g>
<g><path style="opacity:1" fill="#3bb6fe" d="M -0.5,337.5 C -0.5,317.833 -0.5,298.167 -0.5,278.5C 8.55912,263.393 17.3924,248.059 26,232.5C 46.5337,267.176 66.367,302.176 85.5,337.5C 56.8333,337.5 28.1667,337.5 -0.5,337.5 Z"/></g>
<g><path style="opacity:1" fill="#ff68c4" d="M 103.5,267.5 C 109.863,270.934 116.363,273.934 123,276.5C 123.79,282.411 125.957,287.744 129.5,292.5C 125.207,297.709 122.873,303.709 122.5,310.5C 119.432,310.547 116.432,311.047 113.5,312C 110.774,314.03 107.774,315.53 104.5,316.5C 98.638,313.721 92.8046,311.054 87,308.5C 86.0797,305.899 85.413,303.232 85,300.5C 83.2302,297.958 81.7302,295.291 80.5,292.5C 83.7703,287.286 85.937,281.62 87,275.5C 90.2909,273.8 93.7909,272.633 97.5,272C 99.7472,270.723 101.747,269.223 103.5,267.5 Z"/></g>
<g><path style="opacity:1" fill="#7fd958" d="M 1290.5,282.5 C 1312.36,282.194 1322.2,292.861 1320,314.5C 1314.51,328.298 1304.34,334.132 1289.5,332C 1272.69,324.871 1267.52,312.704 1274,295.5C 1278.17,289.35 1283.67,285.017 1290.5,282.5 Z"/></g>
<g><path style="opacity:1" fill="#7ed957" d="M 110.5,407.5 C 73.5,407.5 36.5,407.5 -0.5,407.5C -0.5,397.167 -0.5,386.833 -0.5,376.5C 14.9527,353.118 36.6194,343.951 64.5,349C 94.0984,357.395 109.432,376.895 110.5,407.5 Z"/></g>
<g><path style="opacity:1" fill="#ff66c4" d="M 1387.5,364.5 C 1387.5,378.833 1387.5,393.167 1387.5,407.5C 1354.17,407.5 1320.83,407.5 1287.5,407.5C 1290.35,401.145 1293.85,395.145 1298,389.5C 1299.94,381.245 1302.11,373.078 1304.5,365C 1311.74,362.951 1319.08,361.284 1326.5,360C 1333.3,356.031 1339.97,351.865 1346.5,347.5C 1352.83,351.333 1359.17,355.167 1365.5,359C 1372.69,361.464 1380.02,363.297 1387.5,364.5 Z"/></g>
</svg>
